<svg xmlns="http://www.w3.org/2000/svg" viewBox="0 0 200 44" width="200" height="44">
  <title>Vitamix</title>
  <path fill="#da1a32" d="M198.17,34.32A1.89,1.89,0,1,0,200,36.21,1.83,1.83,0,0,0,198.17,34.32Zm0,3.45a1.57,1.57,0,1,1,1.43-1.56A1.45,1.45,0,0,1,198.17,37.77Z"></path>
  <path fill="#da1a32" d="M198.46,36.38A0.54,0.54,0,0,0,199,35.8c0-.42-0.25-0.6-0.75-0.6h-0.78v2.09h0.34V36.4h0.32l0.54,0.89H199Zm-0.66-.27V35.49h0.41c0.2,0,.45,0,0.45.28s-0.23.33-.48,0.33H197.8Z"></path>
  <polygon fill="#da1a32" points="173.62 38.11 180.17 38.11 183.96 33.16 187.41 38.11 195.17 38.11 188.01 27.94 194.82 18.99 188.36 18.99 184.91 23.47 181.77 18.99 174.05 18.99 180.86 28.68 173.62 38.11"></polygon>
  <polygon fill="#da1a32" points="164.39 13.11 164.39 17.72 171.07 16.72 171.07 12.11 164.39 13.11"></polygon>
  <polygon fill="#da1a32" points="171.08 38.11 171.08 19.22 164.4 20.22 164.4 38.11 171.08 38.11"></polygon>
  <path fill="#da1a32" d="M148.2,38.11V28.68c0-3.08,1.42-4.56,3.45-4.56,1.51,0,2.37,1.09,2.37,3v11h6.59V25.81c0-4.91-1.85-7.34-6.16-7.34a8.14,8.14,0,0,0-6.64,3.65,5.73,5.73,0,0,0-5.73-3.65c-2.63,0-4.65,1.22-6.77,3.73V18.48l-6.12.92V38.11h6.59V28.68c0-3.08,1.42-4.56,3.45-4.56,1.51,0,2.37,1.09,2.37,3v11h6.59Z"></path>
  <path fill="#da1a32" d="M125.18,31.1V18.48l-5.65.85a10.69,10.69,0,0,0-4.44-1.08c-5.65,0-9.87,4.43-9.87,10.65,0,6,3.92,10.13,8.66,10.13a7.63,7.63,0,0,0,4.91-1.65L119.39,39,126,37.37C125.47,35.85,125.18,35.72,125.18,31.1Zm-6.59,1.7a4,4,0,0,1-2.86,1.31c-2.15,0-4-2-4-5.28,0-3.47,2.14-5.77,4.61-5.77a4.57,4.57,0,0,1,2.28.68V32.8Z"></path>
  <path fill="#da1a32" d="M102.87,37.9c-2.09-.63-3.19-2.66-3.19-5.21V24h4.48V19H99.68V12.1l-6.72,1V19H90.2v5H93v7.65c0,3.65.32,5.7,2.27,6.43h7.65V37.9Z"></path>
  <polygon fill="#da1a32" points="79.93 13.13 79.93 17.74 86.61 16.75 86.61 12.12 79.93 13.13"></polygon>
  <polygon fill="#da1a32" points="86.61 38.11 86.61 19.23 79.93 20.22 79.93 38.11 86.61 38.11"></polygon>
  <path fill="#da1a32" d="M87,7S72.86,3.33,67.52,17.18L64,26.27,56.82,7.32h-8L61.17,38.11h5.68s5.89-14.51,8.32-20.45C79.35,7.47,84.43,7.6,86.88,7.31Z"></path>
  <path fill="#97999b" d="M41.48,39.87a1.89,1.89,0,1,0,1.83,1.89A1.83,1.83,0,0,0,41.48,39.87Zm0,3.45a1.57,1.57,0,1,1,1.43-1.56A1.45,1.45,0,0,1,41.48,43.32Z"></path>
  <path fill="#97999b" d="M41.76,41.92a0.54,0.54,0,0,0,.54-0.58c0-.42-0.25-0.6-0.75-0.6H40.76v2.09H41.1V41.95h0.32L42,42.84h0.38Zm-0.66-.27V41h0.41c0.2,0,.45,0,0.45.28s-0.23.33-.48,0.33H41.1Z"></path>
  <path fill="#97999b" d="M11.76,2.48a20.93,20.93,0,0,0-.5,15.36,17.41,17.41,0,0,0,9.46,10l0,0.11a20.28,20.28,0,0,1-9.83,2.71A15.84,15.84,0,0,1,.57,27,22.2,22.2,0,0,1,.84,16,12.35,12.35,0,0,0,7.6,23.48l0.59,0.26-0.33-.56A21.12,21.12,0,0,1,5.92,6.94,21.94,21.94,0,0,1,11.76,2.48ZM29.28,39.17c1.95-4.89,1.39-10.73-1.53-16l-0.11,0A17.9,17.9,0,0,1,10.75,33.89a20.62,20.62,0,0,1-8.29-1.75A22.09,22.09,0,0,0,6.87,38a20.24,20.24,0,0,0,5.76.83h0A20.67,20.67,0,0,0,23,36.07l0.56-.33-0.26.6a12.32,12.32,0,0,1-7.45,6.83,21.66,21.66,0,0,0,10.93.27A16.45,16.45,0,0,0,29.28,39.17ZM43.06,17a15.83,15.83,0,0,0-10.3-3.71A20.29,20.29,0,0,0,22.93,16l0,0.11a17.41,17.41,0,0,1,9.46,10,20.93,20.93,0,0,1-.5,15.36,21.94,21.94,0,0,0,5.84-4.46,21.13,21.13,0,0,0-1.95-16.24l-0.33-.56L36,20.52A12.35,12.35,0,0,1,42.79,28,22.22,22.22,0,0,0,43.06,17Zm0,0a15.83,15.83,0,0,0-10.3-3.71A20.29,20.29,0,0,0,22.93,16l0,0.11a17.41,17.41,0,0,1,9.46,10,20.93,20.93,0,0,1-.5,15.36,21.94,21.94,0,0,0,5.84-4.46,21.13,21.13,0,0,0-1.95-16.24l-0.33-.56L36,20.52A12.35,12.35,0,0,1,42.79,28,22.22,22.22,0,0,0,43.06,17Zm-1.89-5.16A22.1,22.1,0,0,0,36.77,6,20.28,20.28,0,0,0,31,5.15,20.68,20.68,0,0,0,20.64,7.93l-0.56.33,0.26-.59A12.32,12.32,0,0,1,27.8.84,21.65,21.65,0,0,0,16.87.57a16.43,16.43,0,0,0-2.52,4.26c-1.95,4.89-1.39,10.73,1.53,16l0.11,0A17.9,17.9,0,0,1,32.88,10.11,20.64,20.64,0,0,1,41.17,11.86Z"></path>
</svg>
